<svg width="128" height="128" viewBox="0 0 128 128" fill="none" xmlns="http://www.w3.org/2000/svg">
<rect width="128" height="128" rx="64" fill="#FFFCE5"/>
<path d="M42.6589 34.0494C36.3438 34.5188 33.1436 35.3829 30.5514 37.3243C28.7593 38.6684 27.6712 40.5352 27.1805 43.0634C26.9992 44.0341 26.9992 46.7969 27.1912 47.757C27.6606 50.2425 28.8446 52.3653 30.8608 54.3708C32.6102 56.1095 34.5517 57.4856 39.384 60.3978C39.896 60.7072 40.3014 60.9845 40.2694 61.0059C40.2481 61.0272 39.8 60.9952 39.288 60.9205C38.2746 60.7818 34.317 60.8565 33.3249 61.0272C29.3887 61.7099 26.9992 62.5526 24.6737 64.0887C19.9694 67.2036 17.9853 73.22 19.5 79.7591C19.628 80.2818 19.8201 80.9111 19.9267 81.1458C20.0334 81.3805 20.1614 81.6899 20.2041 81.8392C20.3214 82.2446 21.2175 83.962 21.4842 84.282C21.6015 84.4314 21.7829 84.6767 21.8789 84.8261C22.1349 85.2421 23.2763 86.4688 24.0657 87.1836C25.6018 88.581 28.2793 90.0957 30.5514 90.8531C31.2021 91.0665 31.8208 91.2798 31.9382 91.3332C32.0555 91.3758 32.5569 91.5038 33.0583 91.5998C33.5596 91.6959 34.061 91.8239 34.1783 91.8665C34.477 91.9945 37.0585 92.3466 38.872 92.5066C39.96 92.6026 61.2201 92.6452 61.2201 92.5492C61.2201 92.4746 60.7614 91.6959 59.716 89.9997C59.2893 89.2957 58.6173 88.1863 58.2226 87.5462C57.8279 86.8955 56.9958 85.5301 56.3664 84.506C55.7477 83.482 55.193 82.5646 55.1397 82.4793C55.0864 82.3939 54.7343 81.8179 54.361 81.1992C53.9876 80.5805 53.4223 79.6311 53.1022 79.0977C52.7822 78.5537 52.4942 78.1056 52.4515 78.1056C52.3982 78.1056 52.3662 81.1885 52.3662 84.9434V91.7812L47.7045 91.7279C43.1069 91.6638 42.0828 91.5892 40.6321 91.2265C40.3654 91.1625 40.0134 91.0771 39.832 91.0451C39.3733 90.9705 37.0478 90.2238 36.4505 89.9677C35.3731 89.4984 34.4557 89.029 33.645 88.517C29.9327 86.2022 27.3405 82.7246 26.4872 78.9377C26.3912 78.511 26.2738 78.0843 26.2311 77.9776C26.1778 77.8816 26.0711 77.0816 26.0071 76.1855C25.9005 74.9054 25.9005 74.212 26.0071 72.8573C26.0818 71.9186 26.1778 71.0438 26.2311 70.9158C26.2738 70.7985 26.3805 70.4038 26.4552 70.0518C26.6472 69.081 27.2659 67.4916 27.7566 66.6596C29.2393 64.1847 31.4155 62.6593 34.4237 61.9766C35.9598 61.6246 38.7973 61.6246 40.12 61.9766C44.3763 63.1073 48.3232 66.5102 50.5101 70.9585C50.9901 71.9506 50.9688 71.9079 52.9529 75.1721C53.6996 76.3989 54.393 77.5509 54.4997 77.7323C54.5957 77.903 55.0864 78.703 55.5664 79.4924C56.0571 80.2818 56.6545 81.2632 56.8998 81.6792C57.9239 83.3753 59.748 86.3835 59.8333 86.4795C59.876 86.5328 60.036 86.7995 60.1747 87.0662C60.4307 87.5142 61.1134 88.645 62.9162 91.5785C63.3002 92.2079 63.6736 92.8053 63.7269 92.9119C64.0363 93.424 64.463 94 64.5376 94C64.6016 94 65.7217 92.1972 66.8311 90.2984C66.9485 90.1171 67.5885 89.0397 68.2712 87.8983C68.9539 86.7675 69.6046 85.6901 69.7113 85.4981C69.8286 85.3168 71.0341 83.3006 72.4102 81.0178C73.7862 78.7457 74.9917 76.7295 75.0877 76.5589C75.4504 75.9295 77.0078 73.38 77.1038 73.2627C77.1571 73.1986 77.3705 72.74 77.5732 72.2386C79.1306 68.473 81.8614 65.2728 85.115 63.406C87.1098 62.2646 88.7419 61.7846 90.822 61.7099C94.3636 61.5819 97.1904 62.5633 99.3026 64.6648C100.359 65.7102 100.881 66.4569 101.457 67.7583C102.204 69.4651 102.556 71.1292 102.673 73.572C102.897 78.4683 101.553 82.4046 98.5345 85.6155C97.0304 87.2369 95.3983 88.4316 93.3075 89.4557C92.1554 90.0317 89.6379 90.8958 88.4752 91.1198C88.1232 91.1945 87.7178 91.2905 87.5685 91.3332C86.7684 91.5998 84.8483 91.7065 80.688 91.7065H76.3144L76.2611 85.0928L76.2077 78.479L75.973 78.8203C75.8344 79.0017 75.7277 79.1724 75.7277 79.1937C75.7277 79.2364 74.2876 81.6472 73.9036 82.2659C73.8076 82.4152 72.8368 84.0154 71.7594 85.8395C70.6714 87.6529 69.466 89.6691 69.0713 90.2984C68.6872 90.9385 68.3672 91.4825 68.3672 91.5038C68.3672 91.5358 68.2499 91.7385 68.1005 91.9519C67.9512 92.1652 67.8339 92.4106 67.8339 92.4852C67.8339 92.6772 90.022 92.6132 91.0887 92.4106C91.4727 92.3359 92.3795 92.1972 93.1155 92.0905C98.1932 91.3438 102.471 89.3704 105.362 86.4368C106.034 85.7541 107.196 84.378 107.196 84.2607C107.196 84.2287 107.324 84.0154 107.474 83.7913C109.33 81.0712 110.13 76.3029 109.383 72.4839C108.797 69.5717 107.772 67.5663 105.874 65.6675C103.57 63.3633 100.625 61.9979 96.209 61.1872C94.8329 60.9312 94.3849 60.8992 92.1554 60.8885C90.7793 60.8778 89.3393 60.9205 88.9552 60.9632L88.2619 61.0485L88.7419 60.7392C89.0086 60.5685 89.99 59.9605 90.9287 59.3844C91.8674 58.8084 93.2115 57.955 93.9156 57.4856C97.1371 55.3415 99.2706 53.1547 100.476 50.8079C100.807 50.1572 101.297 48.7064 101.425 47.9917C101.628 46.8609 101.681 45.2288 101.553 43.8634C101.244 40.7059 99.8786 38.3911 97.3398 36.7696C96.0704 35.9589 93.9476 35.1695 92.1661 34.8495C91.6647 34.7535 91.11 34.6361 90.9287 34.5828C90.758 34.5295 90.054 34.4335 89.3819 34.3695C88.7099 34.3055 87.7498 34.2094 87.2485 34.1561C86.7471 34.1028 86.2457 34.0494 86.1284 34.0388C85.4243 33.9854 43.4909 33.9854 42.6589 34.0494ZM65.519 34.6788C67.2792 35.5855 68.4632 36.6949 69.1246 38.0604L69.5406 38.9138V59.4164C69.5406 70.6918 69.5726 79.9191 69.626 79.9191C69.6686 79.9191 69.9247 79.5457 70.1913 79.087C70.4687 78.639 71.3434 77.1882 72.1435 75.8655C73.9463 72.9106 73.7969 73.1666 74.2129 72.4946C74.3943 72.1852 74.5543 71.8866 74.5543 71.8226C74.5543 71.7692 74.5863 71.7052 74.6396 71.6839C74.6823 71.6625 75.0557 71.0972 75.461 70.4251L76.2077 69.1984L76.2611 52.0239L76.3144 34.8495L79.1413 34.8175C87.3231 34.7215 90.502 35.4149 92.6995 37.7617C93.4355 38.5511 94.1396 39.8951 94.4383 41.0792C95.025 43.3834 94.8543 47.2556 94.0649 49.5704C93.7556 50.4878 93.2222 51.7466 92.9555 52.1839C92.8275 52.3866 92.6888 52.6426 92.6568 52.7493C92.4861 53.1973 91.2487 54.8828 90.2673 55.9709C88.9552 57.4323 88.5819 57.8056 85.8084 60.2698C82.0641 63.6087 80.1013 65.6675 78.6612 67.7583C78.3199 68.2597 77.2318 70.2651 76.2397 72.2173C74.7143 75.2361 73.9996 76.4949 71.9408 79.8764C71.8234 80.0684 71.4714 80.6445 71.1621 81.1672C70.842 81.6792 70.458 82.3192 70.298 82.5859C68.9966 84.6874 67.6205 86.9915 67.6205 87.0662C67.6205 87.1196 67.5885 87.1729 67.5352 87.1942C67.4925 87.2049 66.9485 88.0583 66.3404 89.0717C65.7217 90.0851 65.0923 91.1091 64.9217 91.3652C64.7617 91.6105 64.6016 91.8985 64.5696 92.0052C64.4096 92.4639 64.1643 92.1439 62.2335 88.933C61.6041 87.8983 58.9159 83.4713 57.8492 81.7325C56.7825 79.9938 55.4917 77.8283 55.0864 77.0922C52.5049 72.4306 51.8435 71.1932 51.3314 70.0518C50.5527 68.3343 49.0273 66.2329 47.2032 64.3554C46.0191 63.1393 44.867 62.0833 41.5921 59.1711C36.4611 54.6161 34.3383 50.9145 33.901 45.7835C33.549 41.6019 34.701 38.3591 37.1439 36.7163C38.2426 35.9909 39.3733 35.5855 41.6561 35.1268C42.6162 34.9348 46.3605 34.7855 49.3793 34.8175L52.3128 34.8495L52.3448 51.9386C52.3662 67.9823 52.3768 69.049 52.5582 69.3477C52.8675 69.8811 54.169 72.0039 55.2357 73.732C55.7904 74.6387 56.8571 76.3882 57.5932 77.6256C58.3292 78.8523 58.9799 79.8657 59.0439 79.8657C59.0973 79.8657 59.1506 75.8868 59.1613 69.4651C59.1826 63.7474 59.204 54.4348 59.2146 48.7704L59.2466 38.4764L59.652 37.783C60.1427 36.951 61.0387 36.0016 61.9028 35.4149C62.7242 34.8495 63.9616 34.2735 64.367 34.2628C64.5483 34.2628 65.0603 34.4548 65.519 34.6788Z" fill="#120318"/>
</svg>
