<svg width="128" height="85" viewBox="0 0 128 85" fill="none" xmlns="http://www.w3.org/2000/svg">
<path d="M33.4029 0.0700247C24.4869 0.734957 19.9687 1.95903 16.3089 4.70943C13.7787 6.61356 12.2425 9.25818 11.5497 12.8397C11.2937 14.2149 11.2937 18.129 11.5648 19.4891C12.2275 23.0102 13.8992 26.0175 16.7457 28.8586C19.2156 31.3218 21.9567 33.2713 28.7792 37.3969C29.5022 37.8352 30.0745 38.2281 30.0293 38.2583C29.9992 38.2885 29.3666 38.2432 28.6437 38.1374C27.2129 37.9409 21.6254 38.0467 20.2247 38.2885C14.6673 39.2557 11.2937 40.4495 8.01045 42.6257C1.36865 47.0384 -1.43265 55.5616 0.705977 64.8254C0.886706 65.5658 1.1578 66.4575 1.30841 66.7899C1.45901 67.1224 1.63974 67.5606 1.69999 67.7722C1.86566 68.3465 3.13076 70.7795 3.50728 71.2329C3.67295 71.4445 3.92898 71.792 4.06453 72.0036C4.42598 72.593 6.03749 74.3309 7.15198 75.3434C9.32073 77.3231 13.101 79.469 16.3089 80.5419C17.2276 80.8442 18.1012 81.1464 18.2668 81.222C18.4325 81.2824 19.1403 81.4638 19.8482 81.5998C20.5561 81.7358 21.2639 81.9171 21.4296 81.9776C21.8513 82.1589 25.496 82.6576 28.0563 82.8843C29.5925 83.0203 59.6086 83.0808 59.6086 82.9448C59.6086 82.839 58.961 81.7358 57.485 79.333C56.8826 78.3356 55.9338 76.7639 55.3765 75.8572C54.8193 74.9353 53.6445 73.001 52.756 71.5502C51.8824 70.0995 51.0993 68.7998 51.024 68.6789C50.9487 68.558 50.4517 67.742 49.9245 66.8655C49.3974 65.989 48.5992 64.644 48.1474 63.8884C47.6955 63.1177 47.2889 62.483 47.2287 62.483C47.1534 62.483 47.1082 66.8504 47.1082 72.1698V81.8567L40.5266 81.7811C34.0354 81.6905 32.5896 81.5847 30.5413 81.0709C30.1648 80.9802 29.6678 80.8593 29.4118 80.8139C28.7642 80.7082 25.4809 79.6503 24.6375 79.2876C23.1164 78.6227 21.8212 77.9578 20.6765 77.2324C15.4354 73.9531 11.7756 69.0265 10.5708 63.6617C10.4352 63.0572 10.2696 62.4528 10.2093 62.3016C10.134 62.1656 9.9834 61.0322 9.89304 59.7628C9.74243 57.9494 9.74243 56.9671 9.89304 55.0478C9.99847 53.718 10.134 52.4788 10.2093 52.2974C10.2696 52.1312 10.4202 51.572 10.5256 51.0733C10.7967 49.6981 11.6702 47.4464 12.363 46.2677C14.4565 42.7617 17.5288 40.6007 21.776 39.6335C23.9447 39.1348 27.9509 39.1348 29.8184 39.6335C35.8277 41.2354 41.4001 46.0561 44.4876 52.3579C45.1653 53.7633 45.1352 53.7028 47.9365 58.3272C48.9908 60.065 49.9697 61.6972 50.1203 61.9541C50.2559 62.1958 50.9487 63.3293 51.6264 64.4476C52.3192 65.5658 53.1626 66.9562 53.509 67.5455C54.9548 69.9484 57.5302 74.21 57.6507 74.346C57.711 74.4215 57.9369 74.7993 58.1327 75.1771C58.4941 75.8118 59.458 77.4137 62.0033 81.5696C62.5455 82.4612 63.0726 83.3074 63.1479 83.4586C63.5846 84.1839 64.1871 85 64.2925 85C64.3829 85 65.9642 82.4461 67.5306 79.7561C67.6962 79.4992 68.5999 77.9729 69.5638 76.3559C70.5277 74.754 71.4464 73.2277 71.597 72.9557C71.7626 72.6988 73.4645 69.8426 75.4073 66.6086C77.3502 63.3897 79.052 60.5335 79.1876 60.2917C79.6997 59.4001 81.8985 55.7883 82.0341 55.6221C82.1094 55.5314 82.4106 54.8816 82.6967 54.1713C84.8956 48.8368 88.7512 44.3031 93.3447 41.6585C96.1611 40.0415 98.4654 39.3615 101.402 39.2557C106.402 39.0743 110.393 40.4647 113.376 43.4417C114.867 44.9227 115.605 45.9806 116.418 47.8242C117.472 50.2422 117.969 52.5997 118.135 56.0603C118.451 62.9968 116.553 68.5732 112.291 73.1219C110.168 75.4189 107.863 77.1115 104.911 78.5622C103.285 79.3783 99.7305 80.6024 98.0888 80.9197C97.5918 81.0255 97.0195 81.1615 96.8087 81.222C95.6791 81.5998 92.9682 81.7509 87.0945 81.7509H80.9196L80.8443 72.3814L80.769 63.0119L80.4376 63.4955C80.2418 63.7524 80.0912 63.9942 80.0912 64.0244C80.0912 64.0849 78.058 67.5002 77.5159 68.3767C77.3803 68.5883 76.0098 70.8551 74.4886 73.4392C72.9524 76.0083 71.2506 78.8645 70.6933 79.7561C70.1511 80.6628 69.6993 81.4335 69.6993 81.4638C69.6993 81.5091 69.5336 81.7962 69.3228 82.0985C69.1119 82.4007 68.9463 82.7483 68.9463 82.8541C68.9463 83.1261 100.273 83.0354 101.779 82.7483C102.321 82.6425 103.601 82.4461 104.64 82.2949C111.809 81.2371 117.849 78.4414 121.93 74.2855C122.879 73.3184 124.52 71.3689 124.52 71.2027C124.52 71.1573 124.701 70.8551 124.912 70.5377C127.533 66.6841 128.662 59.929 127.608 54.5189C126.78 50.3933 125.334 47.5522 122.653 44.8623C119.4 41.5981 115.243 39.6637 109.008 38.5152C107.065 38.1525 106.432 38.1072 103.285 38.0921C101.342 38.0769 99.3088 38.1374 98.7666 38.1978L97.7876 38.3187L98.4654 37.8805C98.8419 37.6387 100.227 36.7773 101.553 35.9613C102.878 35.1452 104.776 33.9362 105.77 33.2713C110.318 30.2338 113.33 27.1358 115.032 23.8111C115.499 22.8893 116.192 20.834 116.373 19.8215C116.659 18.2197 116.734 15.9075 116.553 13.9732C116.117 9.49997 114.189 6.22065 110.604 3.92361C108.812 2.77509 105.815 1.6568 103.3 1.20343C102.592 1.06742 101.809 0.901185 101.553 0.825624C101.312 0.750064 100.318 0.61406 99.369 0.523388C98.4202 0.432715 97.0647 0.296703 96.3568 0.221143C95.649 0.145583 94.9411 0.0700209 94.7755 0.0549088C93.7815 -0.0206517 34.5776 -0.0206478 33.4029 0.0700247ZM65.6781 0.961643C68.1631 2.24617 69.8349 3.81782 70.7686 5.75217L71.356 6.96113V36.0066C71.356 51.9801 71.4012 65.052 71.4765 65.052C71.5367 65.052 71.8982 64.5231 72.2747 63.8733C72.6663 63.2386 73.9013 61.1833 75.0308 59.3094C77.5761 55.1234 77.3652 55.4861 77.9526 54.534C78.2086 54.0958 78.4345 53.6726 78.4345 53.582C78.4345 53.5064 78.4797 53.4157 78.555 53.3855C78.6153 53.3553 79.1424 52.5543 79.7147 51.6023L80.769 49.8644L80.8443 25.5339L80.9196 1.20343L84.9107 1.1581C96.4623 1.02209 100.95 2.00437 104.053 5.32903C105.092 6.44733 106.086 8.35145 106.508 10.0289C107.336 13.2931 107.095 18.7788 105.981 22.0581C105.544 23.3578 104.791 25.141 104.414 25.7606C104.234 26.0477 104.038 26.4104 103.993 26.5615C103.752 27.1962 102.005 29.5839 100.619 31.1254C98.7666 33.1957 98.2395 33.7247 94.3237 37.2156C89.0373 41.9456 86.2661 44.8623 84.2329 47.8242C83.751 48.5345 82.2148 51.3756 80.8142 54.1411C78.6605 58.4178 77.6514 60.2011 74.7447 64.9916C74.579 65.2636 74.082 66.0797 73.6452 66.8201C73.1934 67.5455 72.6512 68.4523 72.4253 68.8301C70.5879 71.8071 68.6451 75.0714 68.6451 75.1771C68.6451 75.2527 68.5999 75.3283 68.5246 75.3585C68.4643 75.3736 67.6962 76.5826 66.8378 78.0182C65.9642 79.4539 65.0757 80.9046 64.8347 81.2673C64.6088 81.6149 64.3829 82.0229 64.3377 82.174C64.1118 82.8239 63.7654 82.3705 61.0394 77.8218C60.1508 76.3559 56.3555 70.0844 54.8494 67.6211C53.3433 65.1578 51.521 62.0901 50.9487 61.0473C47.304 54.4433 46.3702 52.6903 45.6473 51.0733C44.5478 48.6403 42.3942 45.6632 39.8188 43.0035C38.147 41.2807 36.5205 39.7846 31.8968 35.659C24.6526 29.2061 21.6555 23.9622 21.038 16.6933C20.541 10.7694 22.1676 6.17531 25.6165 3.84805C27.1677 2.82043 28.7642 2.24617 31.9872 1.59635C33.3426 1.32433 38.629 1.11276 42.8912 1.1581L47.0329 1.20343L47.0781 25.413C47.1082 48.1416 47.1232 49.6528 47.3793 50.0759C47.816 50.8316 49.6534 53.8389 51.1595 56.287C51.9427 57.5715 53.4488 60.0499 54.4879 61.8029C55.5271 63.5408 56.4458 64.9765 56.5362 64.9765C56.6115 64.9765 56.6868 59.3397 56.7019 50.2422C56.732 42.1421 56.7621 28.9492 56.7772 20.9247L56.8224 6.34154L57.3947 5.35926C58.0875 4.18052 59.3526 2.83554 60.5725 2.00437C61.7322 1.20343 63.4792 0.387382 64.0515 0.37227C64.3076 0.37227 65.0305 0.644289 65.6781 0.961643Z" fill="#22052D"/>
</svg>
